<svg width="7" height="8" viewBox="0 0 7 8" fill="none" xmlns="http://www.w3.org/2000/svg">
<path d="M2.69066 6.26917L0.326937 1.54448C0.142426 1.17567 0.0501715 0.991272 0.0723311 0.841376C0.0916809 0.710486 0.164123 0.593341 0.272609 0.517508C0.396848 0.430664 0.603137 0.430664 1.01571 0.430664H5.74316C6.15574 0.430664 6.36202 0.430664 6.48626 0.517508C6.59475 0.593341 6.66719 0.710486 6.68654 0.841376C6.7087 0.991272 6.61645 1.17567 6.43194 1.54448L4.06821 6.26917C3.84652 6.71229 3.73568 6.93385 3.58568 7.00495C3.45515 7.06682 3.30372 7.06682 3.17319 7.00495C3.02319 6.93385 2.91235 6.71229 2.69066 6.26917Z" fill="#F04438"/>
</svg>
