<svg width="27" height="28" viewBox="0 0 27 28" fill="none" xmlns="http://www.w3.org/2000/svg">
<circle cx="13.4827" cy="13.8617" r="13.2414" fill="#E0F2F1"/>
<path d="M20.3793 11.3443V19.3788C20.3793 19.7446 20.234 20.0954 19.9753 20.3541C19.7166 20.6128 19.3658 20.7581 19 20.7581H7.96549C7.59968 20.7581 7.24884 20.6128 6.99017 20.3541C6.7315 20.0954 6.58618 19.7446 6.58618 19.3788V11.3443C6.58729 11.0692 6.67062 10.8008 6.82547 10.5734C6.98031 10.3461 7.1996 10.1702 7.45515 10.0685L12.9724 7.86156C13.3001 7.73104 13.6654 7.73104 13.9931 7.86156L19.5103 10.0685C19.7659 10.1702 19.9852 10.3461 20.14 10.5734C20.2948 10.8008 20.3782 11.0692 20.3793 11.3443Z" fill="#FEC84B"/>
<path d="M9.3448 17.9996H17.6207H9.3448Z" fill="#FEC84B"/>
<path d="M9.3448 15.2409H17.6207H9.3448Z" fill="#FEC84B"/>
<path d="M17.6207 12.4823H9.3448V20.7582H17.6207V12.4823Z" fill="#FEC84B"/>
<path d="M9.3448 17.9996H17.6207M9.3448 15.2409H17.6207M20.3793 11.3443V19.3788C20.3793 19.7446 20.234 20.0954 19.9753 20.3541C19.7166 20.6128 19.3658 20.7581 19 20.7581H7.96549C7.59968 20.7581 7.24884 20.6128 6.99017 20.3541C6.7315 20.0954 6.58618 19.7446 6.58618 19.3788V11.3443C6.58729 11.0692 6.67062 10.8008 6.82547 10.5734C6.98031 10.3461 7.1996 10.1702 7.45515 10.0685L12.9724 7.86156C13.3001 7.73104 13.6654 7.73104 13.9931 7.86156L19.5103 10.0685C19.7659 10.1702 19.9852 10.3461 20.14 10.5734C20.2948 10.8008 20.3782 11.0692 20.3793 11.3443ZM9.3448 12.4823H17.6207V20.7582H9.3448V12.4823Z" stroke="#F79009" stroke-width="1.10069" stroke-linecap="round" stroke-linejoin="round"/>
</svg>
