<svg width="27" height="28" viewBox="0 0 27 28" fill="none" xmlns="http://www.w3.org/2000/svg">
<circle cx="13.4827" cy="13.8618" r="13.2414" fill="#E0F2F1"/>
<path d="M17.4828 18.8272L16.2414 13.172L18.6552 10.7582C19.6897 9.72373 20.0345 8.34442 19.6897 7.65476C19 7.30993 17.6207 7.65476 16.5862 8.68924L14.1724 11.103L8.51726 9.86166C8.17243 9.79269 7.89657 9.93062 7.75864 10.2065L7.55174 10.5513C7.41381 10.8961 7.48278 11.241 7.75864 11.4479L11.4138 13.8617L10.0345 15.9306H7.96553L7.27588 16.6203L9.34484 17.9996L10.7242 20.0686L11.4138 19.3789V17.3099L13.4828 15.9306L15.8966 19.5858C16.1035 19.8617 16.4483 19.9306 16.7931 19.7927L17.1379 19.6548C17.4138 19.4479 17.5517 19.172 17.4828 18.8272Z" fill="#1E88E5" stroke="#1E88E5" stroke-width="1.10069" stroke-linecap="round" stroke-linejoin="round"/>
</svg>
