<svg width="18" height="32" viewBox="0 0 18 32" fill="none" xmlns="http://www.w3.org/2000/svg">
<path d="M9.32473 0.897587C9.28153 0.553587 8.71673 0.553587 8.67513 0.897587C7.26233 12.2688 0.0383301 14.6128 0.0383301 22.5168C0.0383301 27.4016 4.14073 31.36 8.99993 31.36C13.8591 31.36 17.9599 27.4 17.9599 22.5168C17.9599 14.6128 10.7375 12.2688 9.32473 0.897587ZM7.95993 13.4688C7.86393 13.8187 7.76313 14.1803 7.65753 14.5536C7.01593 16.832 6.28793 19.416 6.28793 22.4032C6.28793 24.0224 5.33113 24.5968 4.43833 24.5968C4.19433 24.596 3.95288 24.547 3.72781 24.4528C3.50274 24.3585 3.29847 24.2208 3.12667 24.0475C2.95488 23.8742 2.81894 23.6688 2.72664 23.4429C2.63433 23.2171 2.58747 22.9752 2.58873 22.7312C2.58873 19.2 4.28793 16.8928 5.78873 14.8592C6.26073 14.2224 6.70393 13.6192 7.06393 13.0192C7.22873 12.744 7.67193 12.7568 7.87353 13.0288C7.96793 13.1568 7.99993 13.32 7.95993 13.4688Z" fill="#DC6803"/>
</svg>
