<svg width="20" height="20" viewBox="0 0 20 20" fill="none" xmlns="http://www.w3.org/2000/svg">
<path d="M5 15H15M5 11.6667H15M18.3333 6.95827V16.6666C18.3333 17.1086 18.1577 17.5326 17.8452 17.8451C17.5326 18.1577 17.1087 18.3333 16.6667 18.3333H3.33333C2.8913 18.3333 2.46738 18.1577 2.15482 17.8451C1.84226 17.5326 1.66666 17.1086 1.66666 16.6666V6.95827C1.66801 6.62589 1.7687 6.30151 1.9558 6.02679C2.1429 5.75208 2.40787 5.53958 2.71666 5.4166L9.38333 2.74993C9.77932 2.59223 10.2207 2.59223 10.6167 2.74993L17.2833 5.4166C17.5921 5.53958 17.8571 5.75208 18.0442 6.02679C18.2313 6.30151 18.332 6.62589 18.3333 6.95827ZM5 8.33335H15V18.3334H5V8.33335Z" stroke="#FAFAFA" stroke-width="1.33" stroke-linecap="round" stroke-linejoin="round"/>
</svg>
