<svg width="16" height="8" viewBox="0 0 16 8" fill="none" xmlns="http://www.w3.org/2000/svg">
<rect x="0.125488" y="0.757812" width="15.3576" height="7" rx="3.5" fill="#B42318"/>
<path d="M3.62168 5.75781V2.86799H4.65175C4.87658 2.86799 5.06283 2.90891 5.21052 2.99075C5.35821 3.07259 5.46875 3.18453 5.54212 3.32658C5.6155 3.46768 5.65218 3.62666 5.65218 3.80351C5.65218 3.9813 5.61502 4.14122 5.54071 4.28327C5.46734 4.42437 5.35633 4.53632 5.2077 4.6191C5.06001 4.70094 4.87422 4.74186 4.65034 4.74186H3.94199V4.37216H4.61083C4.75287 4.37216 4.86811 4.34771 4.95654 4.29879C5.04496 4.24893 5.10987 4.1812 5.15126 4.0956C5.19265 4.00999 5.21335 3.91263 5.21335 3.80351C5.21335 3.69439 5.19265 3.5975 5.15126 3.51284C5.10987 3.42817 5.04449 3.36185 4.95512 3.31388C4.8667 3.2659 4.75005 3.24191 4.60519 3.24191H4.0577V5.75781H3.62168ZM6.16333 2.86799H6.69248L7.61248 5.11437H7.64635L8.56635 2.86799H9.09549V5.75781H8.68064V3.66664H8.65383L7.80156 5.75358H7.45727L6.60499 3.66523H6.57818V5.75781H6.16333V2.86799ZM11.3055 3.62713C11.2905 3.49355 11.2284 3.39007 11.1193 3.3167C11.0102 3.24238 10.8728 3.20523 10.7073 3.20523C10.5887 3.20523 10.4862 3.22404 10.3997 3.26167C10.3131 3.29836 10.2458 3.34915 10.1979 3.41406C10.1508 3.47803 10.1273 3.55093 10.1273 3.63277C10.1273 3.70145 10.1433 3.76071 10.1753 3.81057C10.2082 3.86042 10.251 3.90228 10.3037 3.93615C10.3573 3.96907 10.4147 3.99683 10.4758 4.0194C10.537 4.04104 10.5958 4.05891 10.6522 4.07302L10.9344 4.1464C11.0266 4.16897 11.1212 4.19955 11.2181 4.23811C11.315 4.27668 11.4048 4.32748 11.4876 4.39051C11.5704 4.45353 11.6371 4.53161 11.6879 4.62474C11.7397 4.71787 11.7655 4.82934 11.7655 4.95916C11.7655 5.12284 11.7232 5.26818 11.6386 5.39517C11.5548 5.52217 11.433 5.62235 11.2731 5.69573C11.1141 5.7691 10.9217 5.80579 10.696 5.80579C10.4796 5.80579 10.2924 5.77145 10.1344 5.70278C9.97634 5.63411 9.85264 5.53675 9.76327 5.41069C9.6739 5.2837 9.62452 5.13319 9.61511 4.95916H10.0525C10.061 5.06358 10.0949 5.15059 10.1541 5.2202C10.2143 5.28887 10.291 5.34014 10.3841 5.37401C10.4782 5.40693 10.5812 5.42339 10.6931 5.42339C10.8164 5.42339 10.926 5.40411 11.0219 5.36554C11.1188 5.32603 11.195 5.27147 11.2505 5.20186C11.306 5.13131 11.3338 5.049 11.3338 4.95493C11.3338 4.86932 11.3093 4.79924 11.2604 4.74468C11.2124 4.69012 11.147 4.64497 11.0643 4.60922C10.9824 4.57347 10.8898 4.54196 10.7863 4.51468L10.4448 4.42155C10.2134 4.35852 10.03 4.26586 9.8945 4.14357C9.75998 4.02128 9.69272 3.85948 9.69272 3.65817C9.69272 3.49167 9.73787 3.34633 9.82818 3.22216C9.91848 3.09799 10.0408 3.00157 10.1951 2.9329C10.3493 2.86328 10.5234 2.82848 10.7171 2.82848C10.9128 2.82848 11.0854 2.86281 11.235 2.93148C11.3855 3.00016 11.504 3.0947 11.5906 3.2151C11.6771 3.33457 11.7223 3.47192 11.726 3.62713H11.3055Z" fill="white"/>
</svg>
