<svg width="16" height="8" viewBox="0 0 16 8" fill="none" xmlns="http://www.w3.org/2000/svg">
<rect x="0.178711" y="0.757812" width="15.3576" height="7" rx="3.5" fill="#B54708"/>
<path d="M3.91902 5.75781H3.4562L4.49614 2.86799H4.99988L6.03982 5.75781H5.577L4.76 3.3929H4.73743L3.91902 5.75781ZM3.99663 4.62615H5.49798V4.99302H3.99663V4.62615ZM8.27704 3.78093C8.24976 3.69533 8.21307 3.61866 8.16698 3.55093C8.12182 3.48226 8.06773 3.42394 8.00471 3.37596C7.94168 3.32705 7.86972 3.28989 7.78882 3.26449C7.70886 3.23909 7.6209 3.22639 7.52495 3.22639C7.36221 3.22639 7.21546 3.26825 7.0847 3.35198C6.95395 3.4357 6.85047 3.55846 6.77427 3.72026C6.69902 3.88112 6.66139 4.0782 6.66139 4.31149C6.66139 4.54572 6.69949 4.74374 6.77568 4.90554C6.85188 5.06734 6.9563 5.1901 7.08894 5.27382C7.22158 5.35755 7.37256 5.39941 7.54188 5.39941C7.69898 5.39941 7.83585 5.36742 7.9525 5.30346C8.07009 5.23949 8.16086 5.14918 8.22483 5.03253C8.28974 4.91495 8.32219 4.77666 8.32219 4.61769L8.43508 4.63885H7.6082V4.27903H8.7441V4.60781C8.7441 4.85051 8.69236 5.06123 8.58888 5.23996C8.48634 5.41775 8.3443 5.55509 8.16274 5.65198C7.98213 5.74888 7.77518 5.79732 7.54188 5.79732C7.28037 5.79732 7.05084 5.73712 6.85329 5.61671C6.65669 5.4963 6.50335 5.32556 6.39329 5.1045C6.28323 4.88249 6.2282 4.6191 6.2282 4.31431C6.2282 4.08384 6.26018 3.87689 6.32415 3.69345C6.38812 3.51001 6.47795 3.35433 6.59366 3.22639C6.71031 3.09752 6.84718 2.99921 7.00427 2.93148C7.16231 2.86281 7.33493 2.82848 7.52213 2.82848C7.67828 2.82848 7.82362 2.85152 7.95814 2.89762C8.0936 2.94371 8.21401 3.00909 8.31937 3.09375C8.42567 3.17842 8.51362 3.27907 8.58324 3.39572C8.65285 3.51142 8.69988 3.63983 8.72434 3.78093H8.27704ZM11.8078 4.3129C11.8078 4.62145 11.7514 4.88673 11.6385 5.10873C11.5256 5.32979 11.3709 5.50006 11.1743 5.61953C10.9786 5.73806 10.7561 5.79732 10.5068 5.79732C10.2566 5.79732 10.0332 5.73806 9.8366 5.61953C9.64093 5.50006 9.48666 5.32932 9.37378 5.10732C9.26089 4.88531 9.20445 4.62051 9.20445 4.3129C9.20445 4.00435 9.26089 3.73954 9.37378 3.51848C9.48666 3.29648 9.64093 3.12621 9.8366 3.00768C10.0332 2.88821 10.2566 2.82848 10.5068 2.82848C10.7561 2.82848 10.9786 2.88821 11.1743 3.00768C11.3709 3.12621 11.5256 3.29648 11.6385 3.51848C11.7514 3.73954 11.8078 4.00435 11.8078 4.3129ZM11.3761 4.3129C11.3761 4.07773 11.338 3.87971 11.2618 3.71885C11.1865 3.55705 11.083 3.43476 10.9513 3.35198C10.8206 3.26825 10.6724 3.22639 10.5068 3.22639C10.3403 3.22639 10.1917 3.26825 10.061 3.35198C9.9302 3.43476 9.82672 3.55705 9.75053 3.71885C9.67527 3.87971 9.63764 4.07773 9.63764 4.3129C9.63764 4.54807 9.67527 4.74656 9.75053 4.90836C9.82672 5.06922 9.9302 5.19151 10.061 5.27523C10.1917 5.35802 10.3403 5.39941 10.5068 5.39941C10.6724 5.39941 10.8206 5.35802 10.9513 5.27523C11.083 5.19151 11.1865 5.06922 11.2618 4.90836C11.338 4.74656 11.3761 4.54807 11.3761 4.3129Z" fill="white"/>
</svg>
