<svg width="13" height="14" viewBox="0 0 13 14" fill="none" xmlns="http://www.w3.org/2000/svg">
<path fill-rule="evenodd" clip-rule="evenodd" d="M0.949082 0.861886H3.4645C3.56787 0.865047 3.66656 0.905684 3.74218 0.976223L12.6442 9.76383C12.681 9.80001 12.7101 9.84326 12.7297 9.89098C12.7494 9.9387 12.7591 9.9899 12.7585 10.0415V12.6713C12.7587 12.7507 12.7432 12.8293 12.7129 12.9027C12.6826 12.9762 12.638 13.0429 12.5819 13.099C12.5257 13.1552 12.459 13.1997 12.3856 13.23C12.3122 13.2603 12.2336 13.2758 12.1541 13.2756H9.65505C9.55168 13.2724 9.45299 13.2318 9.37737 13.1613L0.475399 4.37366C0.438596 4.33748 0.409494 4.29423 0.389845 4.24651C0.370195 4.19879 0.360405 4.14759 0.361062 4.09599V1.46624C0.357674 1.38735 0.370442 1.30861 0.398581 1.23483C0.426721 1.16106 0.469639 1.09381 0.524702 1.03722C0.579765 0.980624 0.645811 0.93588 0.718788 0.90573C0.791764 0.875581 0.870132 0.860661 0.949082 0.861886ZM7.15596 0.861886H12.1541C12.2336 0.861702 12.3122 0.877208 12.3856 0.907514C12.459 0.93782 12.5257 0.982329 12.5819 1.03849C12.638 1.09464 12.6826 1.16134 12.7129 1.23474C12.7432 1.30815 12.7587 1.38682 12.7585 1.46624V6.6604C12.1888 5.42427 11.4158 4.29242 10.4717 3.31196C9.5099 2.31716 8.38936 1.48919 7.15596 0.861886ZM5.94725 13.2756H0.949082C0.869666 13.2758 0.790995 13.2603 0.717588 13.23C0.644181 13.1997 0.577484 13.1552 0.521328 13.099C0.465171 13.0429 0.420662 12.9762 0.390356 12.9027C0.36005 12.8293 0.344544 12.7507 0.344728 12.6713V7.47709C0.912562 8.71428 1.68573 9.84642 2.63147 10.8255C3.60086 11.8117 4.7199 12.6386 5.94725 13.2756Z" fill="white"/>
</svg>
