<svg width="30" height="20" viewBox="0 0 30 20" fill="none" xmlns="http://www.w3.org/2000/svg">
<rect x="0.241455" y="0.913818" width="29.2414" height="18.3103" rx="9.15517" fill="#00796B"/>
<path d="M8.74529 6.34652V13.5691H7.65556V6.34652H8.74529ZM16.3311 8.69527H15.2308C15.1885 8.46016 15.1097 8.25326 14.9945 8.07458C14.8793 7.89589 14.7382 7.74425 14.5713 7.61964C14.4044 7.49503 14.2175 7.40099 14.0106 7.33751C13.806 7.27403 13.5885 7.24229 13.3581 7.24229C12.942 7.24229 12.5693 7.34691 12.2402 7.55616C11.9134 7.76541 11.6548 8.07223 11.4643 8.47662C11.2762 8.881 11.1822 9.37473 11.1822 9.95781C11.1822 10.5456 11.2762 11.0417 11.4643 11.4461C11.6548 11.8504 11.9146 12.1561 12.2437 12.363C12.5729 12.5699 12.9432 12.6733 13.3546 12.6733C13.5827 12.6733 13.799 12.6428 14.0035 12.5816C14.2104 12.5182 14.3973 12.4253 14.5643 12.303C14.7312 12.1808 14.8722 12.0315 14.9875 11.8551C15.105 11.6765 15.1861 11.4719 15.2308 11.2415L16.3311 11.245C16.2723 11.6 16.1583 11.9269 15.989 12.2254C15.8221 12.5217 15.607 12.7779 15.3436 12.9942C15.0827 13.2082 14.7841 13.374 14.4479 13.4915C14.1117 13.6091 13.7449 13.6678 13.3476 13.6678C12.7222 13.6678 12.165 13.5197 11.6759 13.2235C11.1869 12.9249 10.8013 12.4982 10.5192 11.9433C10.2394 11.3884 10.0995 10.7266 10.0995 9.95781C10.0995 9.18665 10.2406 8.52481 10.5227 7.9723C10.8049 7.41745 11.1904 6.9919 11.6795 6.69566C12.1685 6.39707 12.7245 6.24778 13.3476 6.24778C13.7308 6.24778 14.0882 6.30303 14.4197 6.41353C14.7535 6.52168 15.0533 6.68155 15.319 6.89315C15.5846 7.1024 15.8045 7.35867 15.9784 7.66196C16.1524 7.9629 16.27 8.30734 16.3311 8.69527ZM17.6351 13.5691V6.34652H22.1633V7.28461H18.7248V9.48524H21.927V10.4198H18.7248V12.631H22.2056V13.5691H17.6351Z" fill="white"/>
</svg>
