<svg width="7" height="8" viewBox="0 0 7 8" fill="none" xmlns="http://www.w3.org/2000/svg">
<path d="M2.69053 1.72985L0.326807 6.45454C0.142297 6.82335 0.0500418 7.00775 0.0722014 7.15765C0.0915512 7.28854 0.163993 7.40568 0.272479 7.48152C0.396719 7.56836 0.603007 7.56836 1.01558 7.56836H5.74303C6.15561 7.56836 6.3619 7.56836 6.48613 7.48152C6.59462 7.40568 6.66706 7.28854 6.68641 7.15765C6.70857 7.00775 6.61632 6.82335 6.43181 6.45455L4.06808 1.72985C3.84639 1.28673 3.73555 1.06517 3.58555 0.994073C3.45502 0.932202 3.30359 0.932202 3.17306 0.994073C3.02306 1.06517 2.91222 1.28673 2.69053 1.72985Z" fill="#12B76A"/>
</svg>
