<svg width="27" height="28" viewBox="0 0 27 28" fill="none" xmlns="http://www.w3.org/2000/svg">
<circle cx="13.4826" cy="13.8618" r="13.2414" fill="#E0F2F1"/>
<path d="M15.552 6.96497H9.34513C8.97931 6.96497 8.62848 7.11029 8.36981 7.36896C8.11114 7.62763 7.96582 7.97846 7.96582 8.34428V19.3788C7.96582 19.7446 8.11114 20.0954 8.36981 20.3541C8.62848 20.6127 8.97931 20.7581 9.34513 20.7581H17.621C17.9868 20.7581 18.3376 20.6127 18.5963 20.3541C18.855 20.0954 19.0003 19.7446 19.0003 19.3788V10.4132L15.552 6.96497Z" fill="#26A69A"/>
<path d="M14.8624 6.96497V9.72359C14.8624 10.0894 15.0077 10.4402 15.2664 10.6989C15.525 10.9576 15.8759 11.1029 16.2417 11.1029H19.0003" fill="#26A69A"/>
<path d="M14.8624 6.96497V9.72359C14.8624 10.0894 15.0077 10.4402 15.2664 10.6989C15.525 10.9576 15.8759 11.1029 16.2417 11.1029H19.0003M15.552 6.96497H9.34513C8.97931 6.96497 8.62848 7.11029 8.36981 7.36896C8.11114 7.62763 7.96582 7.97846 7.96582 8.34428V19.3788C7.96582 19.7446 8.11114 20.0954 8.36981 20.3541C8.62848 20.6127 8.97931 20.7581 9.34513 20.7581H17.621C17.9868 20.7581 18.3376 20.6127 18.5963 20.3541C18.855 20.0954 19.0003 19.7446 19.0003 19.3788V10.4132L15.552 6.96497Z" stroke="#009688" stroke-width="1.10069" stroke-linecap="round" stroke-linejoin="round"/>
</svg>
