<svg width="214" height="9" viewBox="0 0 214 9" fill="none" xmlns="http://www.w3.org/2000/svg">
<path fill-rule="evenodd" clip-rule="evenodd" d="M0.644298 0.482652H2.32124C2.39015 0.484759 2.45595 0.51185 2.50636 0.558876L8.44101 6.41728C8.46555 6.4414 8.48495 6.47023 8.49805 6.50205C8.51115 6.53386 8.51767 6.568 8.51723 6.6024V8.35556C8.51736 8.40851 8.50702 8.46096 8.48682 8.50989C8.46661 8.55883 8.43694 8.6033 8.3995 8.64073C8.36206 8.67817 8.3176 8.70784 8.26866 8.72805C8.21972 8.74825 8.16728 8.75859 8.11433 8.75847H6.44828C6.37937 8.75636 6.31357 8.72927 6.26316 8.68224L0.328509 2.82384C0.303974 2.79972 0.284573 2.77088 0.271473 2.73907C0.258373 2.70726 0.251846 2.67312 0.252284 2.63872V0.885553C0.250026 0.832962 0.258538 0.780464 0.277297 0.731281C0.296057 0.682097 0.324669 0.637266 0.361378 0.599538C0.398086 0.56181 0.442117 0.531981 0.490768 0.511881C0.539419 0.491781 0.591665 0.481834 0.644298 0.482652ZM4.78222 0.482652H8.11433C8.16728 0.482528 8.21972 0.492866 8.26866 0.51307C8.3176 0.533274 8.36206 0.562947 8.3995 0.600384C8.43694 0.637822 8.46661 0.682286 8.48682 0.731224C8.50702 0.780162 8.51736 0.832609 8.51723 0.885553V4.34833C8.13744 3.52424 7.62213 2.76968 6.99274 2.11604C6.35151 1.45284 5.60448 0.900851 4.78222 0.482652ZM3.97641 8.75847H0.644298C0.591353 8.75859 0.538906 8.74825 0.489968 8.72805C0.44103 8.70784 0.396566 8.67817 0.359128 8.64073C0.321691 8.6033 0.292018 8.55883 0.271814 8.50989C0.25161 8.46096 0.241272 8.40851 0.241395 8.35556V4.89279C0.619951 5.71758 1.1354 6.47234 1.76589 7.12508C2.41215 7.78252 3.15818 8.33377 3.97641 8.75847Z" fill="#737373"/>
<rect x="12.6552" y="0.482422" width="0.248276" height="8.27586" fill="#737373"/>
<path d="M17.0416 0.651073C17.0416 0.68614 17.4123 1.77322 17.874 3.05668C18.3288 4.34014 18.7835 5.65166 18.8884 5.97428L19.0843 6.54938H19.9168H20.7563L20.8822 6.2478C20.9521 6.08649 21.6167 4.77498 22.3513 3.33021C23.0858 1.88544 23.6874 0.679126 23.6874 0.644059C23.6874 0.616005 23.3516 0.587952 22.9389 0.587952H22.1834L21.7986 1.41554C21.5887 1.8644 21.099 2.89537 20.7143 3.69491L20.0077 5.16072L19.2942 2.9585C18.9024 1.74517 18.5806 0.714194 18.5806 0.672113C18.5806 0.608992 18.3567 0.587952 17.8111 0.587952C17.3774 0.587952 17.0416 0.616005 17.0416 0.651073Z" fill="#737373"/>
<path d="M53.8389 1.26838V1.95569H52.9784C52.1949 1.96271 52.0899 1.97673 51.6982 2.15908C50.9706 2.48872 50.5229 3.09888 50.341 3.98959C50.1661 4.8312 50.425 5.75698 50.9567 6.19883C51.6282 6.75289 52.7545 6.76691 53.4541 6.22688L53.6989 6.04453V6.29701V6.5495H54.3216H54.9442L54.9861 5.82711C55.0071 5.43436 55.0561 4.29117 55.0981 3.28825C55.1401 2.28533 55.196 1.26838 55.217 1.02992L55.259 0.588072H54.5454H53.8389V1.26838ZM53.622 2.9516C53.7829 2.99368 53.7829 3.0007 53.7339 3.69503C53.671 4.58573 53.538 5.04161 53.2512 5.32916C52.9504 5.63074 52.6146 5.69386 52.2159 5.51151C51.8241 5.34319 51.6702 5.04161 51.6702 4.46651C51.6702 3.98959 51.8381 3.58983 52.1459 3.30227C52.4747 2.98667 53.1603 2.82536 53.622 2.9516Z" fill="#737373"/>
<path d="M24.3449 2.02588C23.5474 2.16615 23.5683 2.15213 23.5194 2.62904C23.4914 2.8675 23.4844 3.07089 23.4984 3.08491C23.5124 3.10596 23.7782 3.04985 24.079 2.96569C24.8066 2.7623 25.5761 2.74827 25.779 2.93062C26.1427 3.26025 25.8559 3.51273 24.8276 3.77223C23.5893 4.08784 23.1626 4.34032 22.9457 4.90841C22.8408 5.18193 22.8408 5.28012 22.9108 5.5817C23.0856 6.33915 23.5264 6.61969 24.5547 6.61969C25.3732 6.61969 25.3872 6.61268 25.5131 6.12174C25.5761 5.89029 25.5971 5.6869 25.5691 5.66586C25.5411 5.65183 25.3732 5.67288 25.1983 5.71496C24.5687 5.86925 24.051 5.58871 24.2329 5.18193C24.3309 4.97153 24.5477 4.85932 25.2193 4.65593C25.4991 4.57176 25.779 4.4876 25.8419 4.46656C25.9329 4.4315 25.9399 4.52968 25.8979 5.25908C25.8699 5.71496 25.8279 6.19888 25.807 6.31811L25.772 6.54956H26.4785H27.1851V6.07264C27.1851 5.81314 27.2201 4.98556 27.269 4.23512C27.339 2.99374 27.339 2.84646 27.2341 2.62203C27.0872 2.32045 26.7654 2.08901 26.3456 1.99783C25.9259 1.89964 24.9535 1.91367 24.3449 2.02588Z" fill="#737373"/>
<path d="M30.0115 2.01894C29.8506 2.06804 29.6057 2.20129 29.4658 2.30649L29.214 2.49586L29.256 2.27844L29.3049 2.06102H28.6054H27.9058L27.8568 3.16213C27.8148 4.10194 27.7169 5.70801 27.6539 6.33922L27.64 6.51456L28.3465 6.5356L29.0531 6.55664L29.102 5.48358C29.172 3.8214 29.3329 3.37955 29.9555 3.14109C30.2493 3.02888 30.3053 3.02888 30.5641 3.12005C31.1448 3.32344 31.1798 3.47073 31.0818 5.40644L31.0259 6.54963H31.7184H32.418L32.467 4.83133C32.4949 3.88452 32.5019 3.01485 32.474 2.89562C32.411 2.58002 32.1801 2.28545 31.8513 2.11713C31.4806 1.92777 30.4522 1.87166 30.0115 2.01894Z" fill="#737373"/>
<path d="M34.7405 1.99775C33.943 2.15204 33.2015 2.77624 32.9146 3.51966C32.7327 3.99658 32.6978 4.87326 32.8447 5.37121C32.9636 5.77799 33.3344 6.22685 33.7191 6.42323C34.0829 6.61259 34.8314 6.6687 35.2652 6.54947C35.4401 6.50038 35.7129 6.36712 35.8738 6.25491L36.1606 6.0445L36.1047 6.4583C36.0347 7.01937 35.9088 7.2929 35.6359 7.4542C35.2022 7.72072 34.8664 7.7137 33.3274 7.41212L33.1385 7.37706L33.1805 7.88904C33.2015 8.17659 33.2504 8.42907 33.2924 8.45011C33.4113 8.53427 34.5586 8.6535 35.1952 8.6535C35.9787 8.6535 36.5384 8.49921 36.8952 8.19062C37.3569 7.79786 37.4058 7.57343 37.4758 5.70786C37.5108 4.80312 37.5667 3.63889 37.6087 3.1199C37.6507 2.60792 37.6717 2.16607 37.6507 2.15204C37.6367 2.13802 37.3429 2.07489 37.0071 2.01879C36.3285 1.91359 35.2372 1.89956 34.7405 1.99775ZM36.0207 2.97963L36.2865 3.04976L36.2446 3.62487C36.1536 4.83819 35.9717 5.28004 35.482 5.50447C35.1253 5.66578 34.9853 5.66578 34.6286 5.50447C34.2648 5.33615 34.1109 5.02755 34.1109 4.46648C34.1179 3.75812 34.4887 3.19705 35.0973 3.00768C35.475 2.88845 35.6779 2.88144 36.0207 2.97963Z" fill="#737373"/>
<path d="M44.1427 2.02588C43.3452 2.16615 43.3662 2.15213 43.3172 2.62904C43.2892 2.8675 43.2823 3.07089 43.2962 3.08491C43.3102 3.10596 43.5761 3.04985 43.8769 2.96569C44.6044 2.7623 45.374 2.74827 45.5768 2.93062C45.9406 3.26025 45.6538 3.51273 44.6254 3.77223C43.3872 4.08784 42.9605 4.34032 42.7436 4.90841C42.6386 5.18193 42.6386 5.28012 42.7086 5.5817C42.8835 6.33915 43.3242 6.61969 44.3526 6.61969C45.1711 6.61969 45.1851 6.61268 45.311 6.12174C45.374 5.89029 45.3949 5.6869 45.367 5.66586C45.339 5.65183 45.1711 5.67288 44.9962 5.71496C44.3666 5.86925 43.8489 5.58871 44.0308 5.18193C44.1287 4.97153 44.3456 4.85932 45.0172 4.65593C45.297 4.57176 45.5768 4.4876 45.6398 4.46656C45.7307 4.4315 45.7377 4.52968 45.6958 5.25908C45.6678 5.71496 45.6258 6.19888 45.6048 6.31811L45.5698 6.54956H46.2764H46.983V6.07264C46.983 5.81314 47.0179 4.98556 47.0669 4.23512C47.1369 2.99374 47.1369 2.84646 47.0319 2.62203C46.885 2.32045 46.5632 2.08901 46.1435 1.99783C45.7237 1.89964 44.7513 1.91367 44.1427 2.02588Z" fill="#737373"/>
<path d="M49.5086 1.99064C49.4177 2.03272 49.2568 2.1239 49.1449 2.20806L48.942 2.34833V2.20806C48.942 2.06779 48.9 2.06077 48.2914 2.06077H47.6338L47.5918 3.72296C47.5638 4.64172 47.5219 5.65166 47.5009 5.96726L47.4519 6.54938H48.1515H48.858L48.886 5.26592C48.921 3.91232 48.963 3.70192 49.2708 3.3793C49.5366 3.09876 49.8724 3.00759 50.2082 3.11279C50.3621 3.16189 50.495 3.18994 50.516 3.17591C50.53 3.15487 50.523 2.87433 50.495 2.55172L50.446 1.95557L50.0613 1.94155C49.8514 1.93453 49.5996 1.95557 49.5086 1.99064Z" fill="#737373"/>
<path d="M38.0705 2.42562C38.0495 2.62901 38.0145 3.44257 37.9865 4.23509C37.9446 5.49049 37.9516 5.70791 38.0565 5.89727C38.3223 6.41627 38.9449 6.66174 39.8404 6.59862C40.393 6.56355 40.7288 6.44432 41.0157 6.17781L41.1696 6.03754L41.1276 6.29704L41.0856 6.54952H41.7572H42.4218L42.4638 5.90429C42.5197 4.90136 42.6456 2.39756 42.6456 2.21521C42.6456 2.06793 42.6247 2.06092 41.9811 2.06092C41.4984 2.06092 41.3165 2.08196 41.3165 2.14508C41.3095 2.19417 41.2815 2.75525 41.2465 3.38646C41.1766 4.63485 41.0646 5.02761 40.6799 5.30814C40.414 5.49751 40.0013 5.53257 39.7075 5.37828C39.2877 5.16086 39.2527 5.00656 39.3507 3.68102C39.3927 3.0428 39.4276 2.41159 39.4276 2.28535V2.06092H38.77H38.1125L38.0705 2.42562Z" fill="#737373"/>
</svg>
