<svg width="39" height="9" viewBox="0 0 39 9" fill="none" xmlns="http://www.w3.org/2000/svg">
<path d="M0.487793 0.168345C0.487793 0.203413 0.854734 1.2905 1.31168 2.57396C1.7617 3.85742 2.21172 5.16893 2.31557 5.49155L2.50943 6.06665H3.33332H4.16413L4.28875 5.76507C4.35798 5.60376 5.01571 4.29225 5.74267 2.84748C6.46962 1.40271 7.06504 0.196399 7.06504 0.161332C7.06504 0.133278 6.73271 0.105225 6.32423 0.105225H5.5765L5.19572 0.932811C4.98801 1.38167 4.50337 2.41265 4.12259 3.21218L3.42332 4.67799L2.71713 2.47577C2.32942 1.26244 2.01094 0.231467 2.01094 0.189386C2.01094 0.126265 1.7894 0.105225 1.24937 0.105225C0.820117 0.105225 0.487793 0.133278 0.487793 0.168345Z" fill="white"/>
<path d="M36.9051 0.78571V1.47303H36.0535C35.2781 1.48004 35.1742 1.49407 34.7865 1.67642C34.0665 2.00605 33.6234 2.61622 33.4434 3.50693C33.2703 4.34854 33.5265 5.27431 34.0526 5.71616C34.7173 6.27022 35.832 6.28425 36.5243 5.74421L36.7666 5.56186V5.81435V6.06683H37.3828H37.999L38.0405 5.34445C38.0613 4.95169 38.1098 3.8085 38.1513 2.80558C38.1928 1.80266 38.2482 0.78571 38.269 0.547253L38.3105 0.105406H37.6043H36.9051V0.78571ZM36.6905 2.46894C36.8497 2.51102 36.8497 2.51803 36.8012 3.21236C36.7389 4.10307 36.6074 4.55894 36.3235 4.84649C36.0258 5.14807 35.6935 5.21119 35.2989 5.02884C34.9111 4.86052 34.7588 4.55894 34.7588 3.98384C34.7588 3.50693 34.925 3.10716 35.2296 2.81961C35.555 2.504 36.2335 2.34269 36.6905 2.46894Z" fill="white"/>
<path d="M7.71609 1.54316C6.92682 1.68343 6.94759 1.6694 6.89912 2.14631C6.87143 2.38477 6.86451 2.58816 6.87835 2.60219C6.8922 2.62323 7.15529 2.56712 7.453 2.48296C8.17303 2.27957 8.93461 2.26554 9.13539 2.44789C9.4954 2.77752 9.21154 3.03001 8.1938 3.28951C6.96836 3.60511 6.54603 3.85759 6.3314 4.42568C6.22755 4.69921 6.22755 4.7974 6.29679 5.09897C6.46987 5.85643 6.90605 6.13696 7.92379 6.13696C8.73383 6.13696 8.74768 6.12995 8.8723 5.63901C8.93461 5.40756 8.95538 5.20417 8.92768 5.18313C8.89999 5.16911 8.73383 5.19015 8.56074 5.23223C7.93764 5.38652 7.4253 5.10599 7.60531 4.69921C7.70224 4.4888 7.91687 4.37659 8.58151 4.1732C8.85845 4.08904 9.13539 4.00488 9.1977 3.98384C9.2877 3.94877 9.29463 4.04696 9.25309 4.77635C9.22539 5.23223 9.18385 5.71616 9.16308 5.83538L9.12846 6.06683H9.82773H10.527V5.58991C10.527 5.33042 10.5616 4.50283 10.6101 3.75239C10.6793 2.51101 10.6793 2.36373 10.5755 2.1393C10.4301 1.83772 10.1116 1.60628 9.69618 1.5151C9.28078 1.41692 8.31842 1.43094 7.71609 1.54316Z" fill="white"/>
<path d="M13.3238 1.53628C13.1646 1.58537 12.9223 1.71863 12.7838 1.82383L12.5346 2.01319L12.5761 1.79577L12.6246 1.57836H11.9322H11.2399L11.1914 2.67947C11.1499 3.61927 11.053 5.22535 10.9907 5.85656L10.9768 6.03189L11.6761 6.05293L12.3753 6.07397L12.4238 5.00092C12.493 3.33873 12.6523 2.89689 13.2685 2.65843C13.5592 2.54621 13.6146 2.54621 13.8708 2.63739C14.4454 2.84078 14.4801 2.98806 14.3831 4.92377L14.3277 6.06696H15.0132H15.7055L15.754 4.34867C15.7817 3.40185 15.7886 2.53219 15.7609 2.41296C15.6986 2.09735 15.4701 1.80279 15.1447 1.63447C14.7778 1.4451 13.76 1.389 13.3238 1.53628Z" fill="white"/>
<path d="M18.0043 1.51514C17.2151 1.66944 16.4812 2.29363 16.1973 3.03706C16.0173 3.51397 15.9827 4.39065 16.1281 4.88861C16.2458 5.29539 16.6127 5.74425 16.9935 5.94062C17.3535 6.12999 18.0943 6.18609 18.5236 6.06687C18.6967 6.01777 18.9667 5.88452 19.1259 5.7723L19.4098 5.5619L19.3544 5.97569C19.2852 6.53677 19.1606 6.81029 18.8905 6.9716C18.4613 7.23811 18.129 7.2311 16.6058 6.92952L16.4189 6.89445L16.4604 7.40643C16.4812 7.69398 16.5297 7.94647 16.5712 7.96751C16.6889 8.05167 17.8243 8.1709 18.4544 8.1709C19.2298 8.1709 19.7837 8.0166 20.1368 7.70801C20.5937 7.31526 20.6422 7.09083 20.7114 5.22525C20.746 4.32052 20.8014 3.15629 20.8429 2.63729C20.8845 2.12531 20.9053 1.68346 20.8845 1.66944C20.8706 1.65541 20.5799 1.59229 20.2475 1.53618C19.576 1.43098 18.4959 1.41695 18.0043 1.51514ZM19.2713 2.49702L19.5344 2.56716L19.4929 3.14226C19.4029 4.35559 19.2229 4.79743 18.7382 5.02186C18.3851 5.18317 18.2467 5.18317 17.8936 5.02186C17.5335 4.85354 17.3812 4.54495 17.3812 3.98387C17.3882 3.27552 17.7551 2.71444 18.3574 2.52508C18.7313 2.40585 18.9321 2.39884 19.2713 2.49702Z" fill="white"/>
<path d="M27.3089 1.54316C26.5196 1.68343 26.5404 1.6694 26.4919 2.14631C26.4642 2.38477 26.4573 2.58816 26.4711 2.60219C26.485 2.62323 26.7481 2.56712 27.0458 2.48296C27.7658 2.27957 28.5274 2.26554 28.7282 2.44789C29.0882 2.77752 28.8043 3.03001 27.7866 3.28951C26.5611 3.60511 26.1388 3.85759 25.9242 4.42568C25.8203 4.69921 25.8203 4.7974 25.8896 5.09897C26.0626 5.85643 26.4988 6.13696 27.5166 6.13696C28.3266 6.13696 28.3404 6.12995 28.4651 5.63901C28.5274 5.40756 28.5482 5.20417 28.5205 5.18313C28.4928 5.16911 28.3266 5.19015 28.1535 5.23223C27.5304 5.38652 27.0181 5.10599 27.1981 4.69921C27.295 4.4888 27.5096 4.37659 28.1743 4.1732C28.4512 4.08904 28.7282 4.00488 28.7905 3.98384C28.8805 3.94877 28.8874 4.04696 28.8459 4.77635C28.8182 5.23223 28.7766 5.71616 28.7559 5.83538L28.7212 6.06683H29.4205H30.1198V5.58991C30.1198 5.33042 30.1544 4.50283 30.2028 3.75239C30.2721 2.51101 30.2721 2.36373 30.1682 2.1393C30.0228 1.83772 29.7044 1.60628 29.289 1.5151C28.8736 1.41692 27.9112 1.43094 27.3089 1.54316Z" fill="white"/>
<path d="M32.62 1.50791C32.53 1.54999 32.3707 1.64117 32.2599 1.72533L32.0592 1.8656V1.72533C32.0592 1.58506 32.0176 1.57805 31.4153 1.57805H30.7645L30.7229 3.24023C30.6952 4.15899 30.6537 5.16893 30.6329 5.48453L30.5845 6.06665H31.2768H31.9761L32.0038 4.78319C32.0384 3.4296 32.0799 3.21919 32.3846 2.89657C32.6477 2.61604 32.98 2.52486 33.3123 2.63006C33.4646 2.67916 33.5962 2.70721 33.6169 2.69318C33.6308 2.67214 33.6239 2.39161 33.5962 2.06899L33.5477 1.47285L33.1669 1.45882C32.9592 1.45181 32.71 1.47285 32.62 1.50791Z" fill="white"/>
<path d="M21.2995 1.94301C21.2787 2.1464 21.2441 2.95996 21.2164 3.75248C21.1748 5.00789 21.1818 5.2253 21.2856 5.41467C21.5487 5.93366 22.1649 6.17913 23.0511 6.11601C23.598 6.08094 23.9304 5.96172 24.2142 5.6952L24.3665 5.55494L24.325 5.81443L24.2835 6.06692H24.9481H25.6058L25.6474 5.42168C25.7028 4.41876 25.8274 1.91496 25.8274 1.73261C25.8274 1.58533 25.8066 1.57831 25.1697 1.57831C24.6919 1.57831 24.5119 1.59935 24.5119 1.66248C24.505 1.71157 24.4773 2.27264 24.4427 2.90385C24.3735 4.15225 24.2627 4.545 23.8819 4.82554C23.6188 5.0149 23.2103 5.04997 22.9195 4.89567C22.5041 4.67826 22.4695 4.52396 22.5665 3.19842C22.608 2.5602 22.6426 1.92899 22.6426 1.80274V1.57831H21.9918H21.341L21.2995 1.94301Z" fill="white"/>
</svg>
